<?xml version="1.0" encoding="UTF-8"?>
<svg xmlns="http://www.w3.org/2000/svg" viewBox="0 0 100 100">
  <g transform="translate(50,50)" fill="#D4875F">
    <rect x="-6" y="-30" width="12" height="36" rx="6" transform="rotate(0)"/>
    <rect x="-6" y="-30" width="12" height="36" rx="6" transform="rotate(30)"/>
    <rect x="-6" y="-30" width="12" height="36" rx="6" transform="rotate(60)"/>
    <rect x="-6" y="-30" width="12" height="36" rx="6" transform="rotate(90)"/>
    <rect x="-6" y="-30" width="12" height="36" rx="6" transform="rotate(120)"/>
    <rect x="-6" y="-30" width="12" height="36" rx="6" transform="rotate(150)"/>
    <rect x="-6" y="-30" width="12" height="36" rx="6" transform="rotate(180)"/>
    <rect x="-6" y="-30" width="12" height="36" rx="6" transform="rotate(210)"/>
    <rect x="-6" y="-30" width="12" height="36" rx="6" transform="rotate(240)"/>
    <rect x="-6" y="-30" width="12" height="36" rx="6" transform="rotate(270)"/>
    <rect x="-6" y="-30" width="12" height="36" rx="6" transform="rotate(300)"/>
    <rect x="-6" y="-30" width="12" height="36" rx="6" transform="rotate(330)"/>
  </g>
</svg>
